<?xml version="1.0" encoding="utf-8"?>
<!-- Generator: Adobe Illustrator 27.5.0, SVG Export Plug-In . SVG Version: 6.00 Build 0)  -->
<svg version="1.1" xmlns="http://www.w3.org/2000/svg" xmlns:xlink="http://www.w3.org/1999/xlink" x="0px" y="0px"
	 viewBox="0 0 750 500" style="enable-background:new 0 0 750 500;" xml:space="preserve">
<g id="BACKGROUND">
	<rect y="0" style="fill:#FFFFFF;" width="750" height="500"/>
</g>
<g id="OBJECTS">
	<g>
		<g>
			<g>
				<g>
					<g>
						<path style="fill:#D9D7FF;" d="M659.404,311.951c0,0-0.214,0.298-0.663,0.867c-0.452,0.567-1.127,1.413-2.02,2.533
							c-1.813,2.216-4.4,5.607-8.095,9.802c-7.244,8.5-18.324,20.768-34.104,34.992c-3.89,3.615-8.225,7.174-12.713,10.994
							c-2.302,1.84-4.66,3.725-7.074,5.655c-2.403,1.943-4.979,3.779-7.547,5.739c-10.378,7.698-22.048,15.541-35.087,23.135
							c-13.034,7.596-27.434,14.94-43.161,21.687c-15.756,6.668-32.825,12.77-51.127,17.857
							c-36.577,10.201-78.149,16.328-122.842,15.987c-22.333-0.171-45.44-1.913-68.939-5.728
							c-23.489-3.805-47.396-9.654-71.008-18.288c-11.808-4.299-23.494-9.41-34.894-15.406
							c-11.369-6.035-22.459-13.015-32.626-21.427c-1.301-1.013-2.495-2.159-3.75-3.235c-0.616-0.552-1.252-1.081-1.852-1.652
							l-1.792-1.724l-1.794-1.726c-0.595-0.58-1.148-1.205-1.725-1.806c-0.567-0.611-1.153-1.206-1.705-1.831l-1.62-1.911
							c-4.298-5.119-8.009-10.77-11.046-16.794c-3.05-6.016-5.496-12.371-7.306-18.932c-1.779-6.57-2.945-13.333-3.496-20.177
							c-1.041-13.677,0.375-27.745,4.935-40.99c1.165-3.298,2.515-6.54,4.088-9.686c1.625-3.115,3.371-6.19,5.466-9.043
							c4.134-5.74,9.074-10.8,13.808-15.996c2.377-2.593,4.688-5.243,6.834-8.018c2.142-2.774,4.128-5.682,5.666-8.822
							c1.555-3.127,2.695-6.453,3.296-9.893c0.611-3.444,0.575-6.985,0.043-10.446c-1.082-6.958-4.299-13.451-8.169-19.423
							c-3.916-5.982-8.459-11.581-12.97-17.243c-4.505-5.664-8.993-11.377-12.72-17.606c-3.751-6.18-6.647-13.031-7.538-20.268
							c-0.955-7.233,0.399-14.622,3.248-21.215c2.859-6.616,7.13-12.522,12.201-17.517c5.098-4.993,10.987-9.039,17.147-12.437
							c6.17-3.397,12.622-6.158,19.112-8.655l4.877-1.835c1.631-0.59,3.275-1.135,4.909-1.703c3.273-1.126,6.538-2.249,9.797-3.37
							c1.63-0.561,3.257-1.12,4.883-1.68c1.626-0.559,3.244-1.138,4.897-1.6c3.288-0.981,6.569-1.96,9.843-2.937
							c26.198-7.776,52.467-13.608,78.463-17.561c26.018-3.821,51.723-5.839,76.827-6.321c25.112-0.597,49.617,0.831,73.262,3.379
							c2.956,0.333,5.9,0.664,8.834,0.994c1.467,0.165,2.931,0.33,4.393,0.494c1.454,0.221,2.905,0.442,4.353,0.663
							c5.793,0.89,11.541,1.773,17.244,2.65c1.43,0.195,2.84,0.49,4.25,0.765c1.41,0.276,2.817,0.551,4.222,0.826
							c2.809,0.549,5.607,1.097,8.393,1.642c2.783,0.558,5.567,1.058,8.317,1.658c2.739,0.653,5.466,1.304,8.181,1.952
							c2.715,0.648,5.419,1.293,8.111,1.936c2.686,0.666,5.389,1.218,8.015,2.017c5.279,1.494,10.512,2.974,15.696,4.441
							c10.343,2.932,20.52,6.169,29.709,11.142c4.564,2.509,8.862,5.464,12.572,9.007c3.688,3.548,6.872,7.585,9.166,12.064
							c2.34,4.448,3.732,9.347,4.007,14.271c0.205,4.932-0.599,9.767-1.749,14.379c-1.131,4.627-2.539,9.103-3.576,13.591
							c-1.019,4.478-1.746,9.006-1.396,13.451c0.337,4.436,1.716,8.701,3.88,12.456c2.177,3.757,5.095,6.981,8.29,9.749
							c6.445,5.536,13.986,9.245,21.561,11.838c7.572,2.689,15.073,4.835,22.235,7.212c7.155,2.38,14.02,4.939,20.213,8.3
							c6.227,3.293,11.632,7.493,16.218,12.069c4.609,4.571,8.269,9.658,11.156,14.812c2.885,5.164,4.966,10.432,6.373,15.567
							c2.824,10.296,2.926,19.955,1.827,28.047c-0.241,2.035-0.654,3.962-1.018,5.816c-0.211,0.92-0.455,1.813-0.673,2.69
							c-0.113,0.438-0.224,0.871-0.334,1.299c-0.133,0.422-0.264,0.839-0.393,1.251c-0.259,0.824-0.513,1.629-0.76,2.414
							c-0.29,0.77-0.574,1.522-0.85,2.254c-0.517,1.478-1.168,2.813-1.723,4.098c-2.342,5.091-4.728,8.653-6.337,11.018
							c-0.842,1.159-1.515,2.01-1.951,2.588C659.641,311.671,659.404,311.951,659.404,311.951s0.201-0.308,0.625-0.896
							c0.424-0.587,1.057-1.464,1.894-2.624c1.57-2.386,3.912-5.963,6.205-11.052c0.543-1.284,1.182-2.617,1.686-4.093
							c0.27-0.731,0.547-1.48,0.831-2.249c0.241-0.783,0.488-1.586,0.741-2.408c0.127-0.411,0.255-0.827,0.384-1.247
							c0.107-0.427,0.215-0.858,0.324-1.295c0.212-0.875,0.45-1.763,0.654-2.68c0.353-1.846,0.753-3.764,0.982-5.79
							c1.051-8.052,0.907-17.648-1.935-27.858c-1.416-5.091-3.5-10.311-6.377-15.422c-2.88-5.102-6.523-10.131-11.102-14.647
							c-4.557-4.52-9.92-8.664-16.096-11.909c-6.142-3.314-12.979-5.846-20.119-8.202c-7.149-2.354-14.658-4.483-22.268-7.168
							c-7.626-2.593-15.284-6.33-21.847-11.947c-3.256-2.812-6.246-6.098-8.49-9.953c-2.23-3.852-3.665-8.257-4.019-12.827
							c-0.367-4.578,0.373-9.198,1.394-13.724c1.041-4.536,2.442-9.015,3.556-13.606c1.134-4.578,1.906-9.319,1.701-14.107
							c-0.275-4.774-1.63-9.531-3.92-13.868c-2.243-4.366-5.366-8.316-8.986-11.789c-3.639-3.466-7.863-6.364-12.37-8.835
							c-9.069-4.894-19.182-8.106-29.52-11.021c-5.176-1.458-10.4-2.929-15.671-4.414c-2.622-0.794-5.32-1.342-8.002-2.004
							c-2.688-0.638-5.387-1.279-8.098-1.923c-2.711-0.644-5.433-1.291-8.167-1.94c-2.745-0.596-5.525-1.092-8.303-1.646
							c-2.781-0.541-5.574-1.085-8.378-1.63c-1.402-0.273-2.807-0.546-4.214-0.82c-1.408-0.273-2.815-0.566-4.242-0.759
							c-5.693-0.869-11.431-1.745-17.213-2.628c-1.446-0.219-2.894-0.438-4.345-0.658c-1.459-0.163-2.92-0.326-4.384-0.489
							c-2.928-0.327-5.868-0.655-8.817-0.984c-23.6-2.522-48.055-3.928-73.114-3.316c-25.052,0.498-50.7,2.526-76.66,6.351
							c-25.938,3.957-52.145,9.787-78.281,17.553c-3.266,0.976-6.54,1.953-9.82,2.933c-1.649,0.462-3.263,1.04-4.885,1.598
							c-1.622,0.558-3.246,1.117-4.871,1.677c-3.251,1.119-6.509,2.241-9.774,3.364c-1.63,0.568-3.271,1.111-4.897,1.7l-4.859,1.829
							c-6.46,2.488-12.856,5.228-18.948,8.584c-6.079,3.354-11.873,7.343-16.856,12.225c-4.96,4.886-9.132,10.663-11.911,17.098
							c-2.77,6.417-4.07,13.55-3.148,20.528c0.861,6.991,3.666,13.662,7.361,19.748c3.667,6.13,8.12,11.803,12.62,17.46
							c4.505,5.656,9.074,11.283,13.044,17.348c3.922,6.057,7.24,12.713,8.366,19.944c0.553,3.594,0.589,7.288-0.046,10.867
							c-0.624,3.582-1.812,7.042-3.419,10.268c-1.589,3.242-3.625,6.218-5.803,9.038c-2.182,2.821-4.519,5.498-6.905,8.1
							c-4.755,5.215-9.661,10.245-13.715,15.875c-2.051,2.791-3.764,5.808-5.361,8.866c-1.546,3.089-2.875,6.277-4.022,9.525
							c-4.494,13.041-5.903,26.943-4.877,40.457c0.542,6.763,1.693,13.446,3.447,19.935c1.785,6.48,4.197,12.754,7.204,18.69
							c2.993,5.943,6.649,11.514,10.88,16.557c4.218,5.051,9.073,9.521,14.067,13.729c10.075,8.345,21.093,15.291,32.399,21.3
							c11.338,5.972,22.971,11.07,34.732,15.36c23.518,8.618,47.351,14.469,70.772,18.283c23.432,3.825,46.48,5.585,68.76,5.779
							c44.586,0.388,86.071-5.671,122.582-15.791c18.269-5.046,35.311-11.105,51.047-17.729
							c15.706-6.703,30.092-14.001,43.118-21.552c13.031-7.548,24.701-15.347,35.083-23.001c2.569-1.949,5.146-3.775,7.552-5.707
							c2.416-1.919,4.776-3.794,7.081-5.624c4.493-3.8,8.835-7.338,12.732-10.934c15.812-14.145,26.943-26.344,34.247-34.782
							c3.725-4.163,6.345-7.525,8.192-9.712c0.916-1.1,1.608-1.932,2.072-2.49C659.154,312.221,659.404,311.951,659.404,311.951z"/>
					</g>
				</g>
			</g>
			<g>
				<path style="fill:#D9D7FF;" d="M651.117,312.896c26.833-33.286,17.279-83.571-21.721-103.068
					c-13.235-6.616-27.8-9.853-41.596-15.195c-13.797-5.342-27.523-15.585-29.645-30.381c-2.055-14.33,7.389-28.198,6.72-42.669
					c-0.544-11.766-7.885-22.349-17.22-29.356c-9.334-7.007-20.534-10.958-31.643-14.458
					C400.76,41.461,273.746,43.925,159.595,84.682c-13.431,4.796-26.953,10.26-37.863,19.538
					c-10.911,9.278-18.953,23.065-18.124,37.417c1.87,32.346,45.474,53.713,39.468,85.578c-3.124,16.572-18.751,27.177-28.88,40.614
					c-22.096,29.311-21.459,85.09,10.041,117.499C204.828,468.242,491.519,510.88,651.117,312.896z"/>
			</g>
			<g>
				<g>
					<path style="fill:#725FC4;" d="M438.004,111.413H292.051c-10.473,0-18.993,8.521-18.993,18.993v269.7
						c0,10.473,8.521,18.993,18.993,18.993h145.954c10.473,0,18.993-8.521,18.993-18.993v-269.7
						C456.998,119.933,448.477,111.413,438.004,111.413z"/>
					<path style="fill:#F4F3FF;" d="M438.004,119.446h-38.966c0,2.24-1.815,4.055-4.055,4.055h-59.911
						c-2.24,0-4.055-1.815-4.055-4.055h-38.967c-6.043,0-10.96,4.916-10.96,10.96v269.699c0,6.044,4.916,10.96,10.96,10.96h145.953
						c6.043,0,10.96-4.916,10.96-10.96V130.407C448.964,124.363,444.047,119.446,438.004,119.446z"/>
				</g>
				<rect x="300.288" y="142.528" style="fill:none;" width="129.479" height="30.62"/>
				<text transform="matrix(1 0 0 1 300.2884 165.5416)"><tspan x="0" y="0" style="fill:#725FC4; font-family:'Mohave-Bold'; font-size:32.4134px; letter-spacing:39;">CO</tspan><tspan x="119.528" y="0" style="fill:#725FC4; font-family:'Mohave-Bold'; font-size:32.4134px;">-</tspan></text>
				<g>
					<rect x="295.891" y="269.795" style="fill:#D7D7F9;" width="86.776" height="53.389"/>
					<rect x="295.374" y="181.087" style="fill:#D7D7F9;" width="114.762" height="6.886"/>
					<rect x="295.374" y="199.103" style="fill:#D7D7F9;" width="139.845" height="6.886"/>
					<rect x="295.374" y="217.118" style="fill:#D7D7F9;" width="139.845" height="6.886"/>
					<rect x="295.374" y="235.134" style="fill:#D7D7F9;" width="139.845" height="6.886"/>
					<rect x="295.374" y="253.149" style="fill:#D7D7F9;" width="139.845" height="6.886"/>
					<g>
						<rect x="391.831" y="269.795" style="fill:#D7D7F9;" width="43.388" height="22.562"/>
						<rect x="391.831" y="300.623" style="fill:#D7D7F9;" width="43.388" height="22.562"/>
					</g>
					<polyline style="fill:none;stroke:#D7D7F9;stroke-width:2;stroke-miterlimit:10;" points="298.93,333.912 298.93,389.357 
						435.219,389.357 					"/>
					<g>
						
							<line style="fill:none;stroke:#D7D7F9;stroke-width:0.25;stroke-miterlimit:10;" x1="305.172" y1="336.348" x2="435.219" y2="336.348"/>
						
							<line style="fill:none;stroke:#D7D7F9;stroke-width:0.25;stroke-miterlimit:10;" x1="305.172" y1="344.126" x2="435.219" y2="344.126"/>
						
							<line style="fill:none;stroke:#D7D7F9;stroke-width:0.25;stroke-miterlimit:10;" x1="305.172" y1="351.904" x2="435.219" y2="351.904"/>
						
							<line style="fill:none;stroke:#D7D7F9;stroke-width:0.25;stroke-miterlimit:10;" x1="305.172" y1="359.682" x2="435.219" y2="359.682"/>
						
							<line style="fill:none;stroke:#D7D7F9;stroke-width:0.25;stroke-miterlimit:10;" x1="305.172" y1="367.46" x2="435.219" y2="367.46"/>
						
							<line style="fill:none;stroke:#D7D7F9;stroke-width:0.25;stroke-miterlimit:10;" x1="305.172" y1="375.237" x2="435.219" y2="375.237"/>
						
							<line style="fill:none;stroke:#D7D7F9;stroke-width:0.25;stroke-miterlimit:10;" x1="305.172" y1="383.015" x2="435.219" y2="383.015"/>
					</g>
					<polyline style="fill:none;stroke:#725FC4;stroke-width:0.75;stroke-miterlimit:10;" points="305.172,374.934 326.822,349.341 
						343.526,367.945 358.31,356.681 377.473,380.259 395.519,363.132 402.957,373.935 428.527,338.659 					"/>
					<circle style="fill:#F98732;" cx="326.804" cy="349.354" r="1.84"/>
					<path style="fill:#F98732;" d="M397.412,363.474c0,1.016-0.824,1.84-1.84,1.84c-1.016,0-1.84-0.824-1.84-1.84
						c0-1.016,0.824-1.84,1.84-1.84C396.588,361.634,397.412,362.458,397.412,363.474z"/>
					<path style="fill:#F98732;" d="M360.224,356.733c0,1.016-0.824,1.84-1.84,1.84c-1.016,0-1.84-0.824-1.84-1.84
						c0-1.016,0.824-1.84,1.84-1.84C359.4,354.893,360.224,355.716,360.224,356.733z"/>
					<g>
						<defs>
							<rect id="SVGID_1_" x="295.891" y="269.795" width="86.776" height="53.389"/>
						</defs>
						<clipPath id="SVGID_00000003798067656245393530000015769879498590526375_">
							<use xlink:href="#SVGID_1_"  style="overflow:visible;"/>
						</clipPath>
						<g style="clip-path:url(#SVGID_00000003798067656245393530000015769879498590526375_);">
							<path style="fill:#E9E9FF;" d="M336.277,311.085c-0.818-0.441-1.714-0.402-2.436-0.024c-0.782,0.41-1.673,0.56-2.513,0.287
								l-4.142-1.346c0.352-1.3,0.557-2.661,0.557-4.073c0-1.412-0.205-2.773-0.557-4.073l4.017-1.305
								c0.898-0.292,1.851-0.139,2.698,0.278c0.579,0.285,1.262,0.354,1.925,0.139c1.51-0.491,2.262-2.238,1.473-3.709
								c-0.495-0.923-1.558-1.466-2.596-1.326c-0.921,0.124-1.623,0.682-1.984,1.412c-0.391,0.791-1.025,1.437-1.864,1.71
								l-4.141,1.346c-0.992-2.605-2.651-4.877-4.785-6.596l2.479-3.412c0.555-0.764,1.415-1.201,2.346-1.361
								c0.635-0.11,1.229-0.455,1.639-1.019c0.934-1.285,0.514-3.14-0.988-3.866c-0.943-0.456-2.122-0.27-2.88,0.453
								c-0.672,0.641-0.912,1.506-0.775,2.309c0.149,0.871,0.016,1.765-0.503,2.479l-2.556,3.518
								c-2.247-1.473-4.899-2.367-7.752-2.506v-4.23c0-0.944,0.439-1.803,1.098-2.48c0.449-0.462,0.727-1.091,0.727-1.788
								c0-1.588-1.429-2.842-3.072-2.547c-1.031,0.186-1.875,1.029-2.064,2.059c-0.167,0.914,0.147,1.755,0.73,2.324
								c0.632,0.617,1.05,1.419,1.05,2.301v4.361c-2.853,0.139-5.505,1.034-7.752,2.506l-2.479-3.412
								c-0.555-0.764-0.705-1.717-0.57-2.651c0.092-0.638-0.053-1.31-0.463-1.874c-0.934-1.285-2.827-1.46-3.982-0.255
								c-0.725,0.756-0.913,1.935-0.459,2.879c0.402,0.838,1.15,1.333,1.956,1.451c0.874,0.128,1.683,0.53,2.202,1.245l2.556,3.518
								c-2.134,1.719-3.794,3.991-4.785,6.596l-4.017-1.305c-0.898-0.292-1.579-0.975-2.02-1.811
								c-0.301-0.57-0.813-1.028-1.476-1.244c-1.51-0.491-3.145,0.481-3.371,2.134c-0.142,1.038,0.399,2.102,1.32,2.599
								c0.818,0.441,1.714,0.402,2.436,0.024c0.782-0.41,1.673-0.56,2.513-0.287l4.142,1.346c-0.352,1.3-0.557,2.662-0.557,4.073
								c0,1.412,0.205,2.773,0.557,4.073l-4.017,1.305c-0.898,0.292-1.851,0.14-2.698-0.277c-0.579-0.285-1.262-0.354-1.925-0.139
								c-1.51,0.491-2.262,2.238-1.473,3.709c0.495,0.923,1.558,1.465,2.596,1.326c0.921-0.124,1.623-0.682,1.984-1.412
								c0.391-0.791,1.025-1.437,1.864-1.71l4.141-1.346c0.992,2.605,2.651,4.877,4.785,6.596l-2.479,3.412
								c-0.555,0.764-1.415,1.201-2.346,1.361c-0.635,0.11-1.229,0.455-1.639,1.02c-0.934,1.285-0.514,3.14,0.988,3.866
								c0.943,0.456,2.122,0.27,2.88-0.453c0.673-0.641,0.912-1.506,0.775-2.309c-0.149-0.871-0.016-1.765,0.503-2.479l2.556-3.518
								c2.247,1.473,4.899,2.367,7.752,2.506v4.23c0,0.944-0.439,1.803-1.098,2.48c-0.45,0.462-0.727,1.091-0.727,1.788
								c0,1.588,1.429,2.843,3.072,2.547c1.031-0.185,1.875-1.029,2.064-2.059c0.167-0.914-0.147-1.755-0.73-2.324
								c-0.632-0.617-1.05-1.418-1.05-2.301v-4.361c2.853-0.139,5.505-1.034,7.752-2.506l2.479,3.412
								c0.555,0.764,0.705,1.717,0.57,2.652c-0.092,0.638,0.053,1.31,0.463,1.874c0.934,1.285,2.827,1.459,3.982,0.255
								c0.725-0.756,0.913-1.935,0.459-2.879c-0.402-0.838-1.15-1.333-1.956-1.451c-0.874-0.128-1.683-0.53-2.202-1.245
								l-2.556-3.518c2.134-1.719,3.794-3.991,4.785-6.596l4.017,1.305c0.898,0.292,1.579,0.975,2.02,1.81
								c0.301,0.57,0.813,1.028,1.476,1.244c1.51,0.491,3.145-0.481,3.371-2.135C337.739,312.647,337.198,311.583,336.277,311.085z"
								/>
							<circle style="fill:#D7D7F9;" cx="312.172" cy="305.93" r="8.061"/>
						</g>
						<g style="clip-path:url(#SVGID_00000003798067656245393530000015769879498590526375_);">
							<path style="fill:#E9E9FF;" d="M384.58,289.465c-0.663-0.358-1.39-0.326-1.976-0.019c-0.634,0.333-1.357,0.454-2.039,0.233
								l-3.36-1.092c0.286-1.055,0.452-2.159,0.452-3.304c0-1.145-0.166-2.249-0.452-3.304l3.259-1.059
								c0.729-0.237,1.501-0.113,2.188,0.225c0.469,0.231,1.024,0.287,1.562,0.112c1.225-0.398,1.835-1.815,1.195-3.008
								c-0.402-0.749-1.264-1.189-2.106-1.076c-0.747,0.1-1.317,0.553-1.61,1.146c-0.318,0.642-0.831,1.165-1.512,1.387
								l-3.359,1.091c-0.804-2.113-2.151-3.956-3.881-5.35l2.011-2.767c0.45-0.62,1.148-0.974,1.903-1.104
								c0.515-0.089,0.997-0.369,1.33-0.827c0.757-1.042,0.417-2.547-0.802-3.136c-0.765-0.37-1.721-0.219-2.336,0.367
								c-0.545,0.52-0.74,1.221-0.629,1.873c0.121,0.706,0.013,1.431-0.408,2.011l-2.073,2.853c-1.823-1.194-3.974-1.92-6.288-2.033
								v-3.431c0-0.766,0.356-1.462,0.89-2.012c0.365-0.375,0.59-0.885,0.59-1.451c0-1.288-1.159-2.306-2.492-2.066
								c-0.836,0.151-1.521,0.835-1.674,1.67c-0.135,0.741,0.119,1.423,0.592,1.885c0.512,0.5,0.852,1.151,0.852,1.867v3.537
								c-2.314,0.113-4.465,0.838-6.288,2.033l-2.011-2.767c-0.45-0.62-0.572-1.393-0.462-2.151c0.075-0.518-0.043-1.063-0.376-1.52
								c-0.757-1.042-2.293-1.184-3.23-0.207c-0.588,0.613-0.74,1.569-0.372,2.335c0.326,0.68,0.933,1.082,1.587,1.177
								c0.709,0.103,1.365,0.43,1.786,1.01l2.073,2.853c-1.731,1.394-3.077,3.237-3.881,5.35l-3.258-1.059
								c-0.729-0.237-1.281-0.791-1.638-1.468c-0.244-0.463-0.659-0.834-1.197-1.009c-1.225-0.398-2.551,0.39-2.735,1.731
								c-0.115,0.841,0.324,1.705,1.071,2.108c0.663,0.358,1.39,0.326,1.976,0.019c0.634-0.333,1.357-0.454,2.039-0.233l3.36,1.092
								c-0.286,1.055-0.452,2.159-0.452,3.304c0,1.145,0.166,2.249,0.452,3.304l-3.259,1.059c-0.729,0.237-1.501,0.113-2.188-0.225
								c-0.469-0.231-1.024-0.287-1.562-0.112c-1.225,0.398-1.835,1.815-1.195,3.008c0.402,0.749,1.264,1.189,2.106,1.076
								c0.747-0.1,1.317-0.553,1.61-1.146c0.318-0.642,0.831-1.165,1.512-1.387l3.359-1.091c0.804,2.113,2.151,3.956,3.881,5.35
								l-2.011,2.767c-0.45,0.62-1.148,0.974-1.903,1.104c-0.515,0.089-0.997,0.369-1.329,0.827
								c-0.757,1.042-0.417,2.547,0.802,3.136c0.765,0.37,1.721,0.219,2.336-0.367c0.546-0.52,0.74-1.221,0.629-1.873
								c-0.12-0.706-0.013-1.431,0.408-2.011l2.073-2.854c1.823,1.195,3.974,1.92,6.288,2.033v3.431c0,0.766-0.356,1.463-0.89,2.012
								c-0.365,0.375-0.59,0.885-0.59,1.45c0,1.288,1.159,2.306,2.492,2.066c0.836-0.151,1.521-0.835,1.674-1.67
								c0.135-0.742-0.119-1.423-0.592-1.885c-0.512-0.5-0.852-1.15-0.852-1.867v-3.537c2.314-0.113,4.465-0.838,6.288-2.033
								l2.011,2.767c0.45,0.62,0.572,1.393,0.462,2.151c-0.075,0.518,0.043,1.062,0.376,1.52c0.757,1.042,2.293,1.184,3.23,0.207
								c0.588-0.613,0.74-1.569,0.373-2.335c-0.326-0.68-0.933-1.081-1.587-1.177c-0.709-0.104-1.365-0.43-1.786-1.01l-2.073-2.853
								c1.731-1.394,3.077-3.237,3.881-5.35l3.258,1.059c0.729,0.237,1.281,0.791,1.638,1.468c0.244,0.463,0.659,0.834,1.197,1.009
								c1.225,0.398,2.551-0.39,2.734-1.731C385.766,290.731,385.327,289.868,384.58,289.465z"/>
							<path style="fill:#D7D7F9;" d="M371.566,285.283c0,3.611-2.927,6.538-6.539,6.538c-3.611,0-6.538-2.927-6.538-6.538
								c0-3.611,2.927-6.539,6.538-6.539C368.639,278.744,371.566,281.672,371.566,285.283z"/>
						</g>
					</g>
				</g>
				<path style="fill:#D7D7F9;" d="M457.112,222.639h-0.114v-35.263h0.114c1.817,0,3.289,1.473,3.289,3.289v28.684
					C460.401,221.167,458.928,222.639,457.112,222.639z"/>
				<path style="fill:#D7D7F9;" d="M457.112,180.14h-0.114v-15.134h0.114c1.817,0,3.289,1.473,3.289,3.29v8.555
					C460.401,178.667,458.928,180.14,457.112,180.14z"/>
				<path style="fill:#D7D7F9;" d="M457.112,156.045h-0.114v-15.134h0.114c1.817,0,3.289,1.473,3.289,3.289v8.555
					C460.401,154.572,458.928,156.045,457.112,156.045z"/>
			</g>
			<g>
				<path style="fill:#F98732;" d="M298.93,129.878H166.554c-17.02,0-30.818-13.798-30.818-30.818v-2.135
					c0-17.02,13.798-30.818,30.818-30.818h101.558c17.02,0,30.818,13.798,30.818,30.818V129.878z"/>
				<rect x="164.44" y="80.416" style="fill:none;" width="105.786" height="35.152"/>
				<text transform="matrix(1 0 0 1 164.4407 112.0035)"><tspan x="0" y="0" style="fill:#FFFFFF; font-family:'Mohave-MediumItalic'; font-size:44.4893px; letter-spacing:8;">NE</tspan><tspan x="68.149" y="0" style="fill:#FFFFFF; font-family:'Mohave-MediumItalic'; font-size:44.4893px;">W</tspan></text>
			</g>
			<path style="fill:#725FC4;" d="M519.331,113.953c-2.06-8.655-9.838-15.119-19.115-15.119c-10.845,0-19.667,8.822-19.667,19.667
				c0,10.845,8.822,19.667,19.667,19.667c6.808,0,13.036-3.445,16.662-9.215l-4.525-2.843c-2.641,4.204-7.179,6.714-12.138,6.714
				c-7.899,0-14.324-6.425-14.324-14.324s6.425-14.324,14.324-14.324c6.308,0,11.665,4.103,13.571,9.776h-4.246l3.835,4.547
				l3.835,4.547l3.835-4.547l3.835-4.547H519.331z"/>
			<g>
				<circle style="fill:#725FC4;" cx="204.967" cy="179.436" r="27.169"/>
				<path style="fill:#D9D7FF;" d="M215.62,178.01c1.098,0.634,1.098,2.218,0,2.852l-8.132,4.695l-8.133,4.695
					c-1.098,0.634-2.47-0.158-2.47-1.426v-9.391v-9.39c0-1.268,1.372-2.06,2.47-1.426l8.133,4.695L215.62,178.01z"/>
			</g>
			<g>
				<path style="fill:#F98732;" d="M471.773,35.391h-45.618c-4.802,0-8.695,3.893-8.695,8.695v30.797
					c0,4.802,3.893,8.695,8.695,8.695h15.775l5.248,9.09c0.794,1.375,2.779,1.375,3.573,0l5.248-9.09h15.775
					c4.802,0,8.695-3.893,8.695-8.695V44.085C480.468,39.283,476.575,35.391,471.773,35.391z"/>
				<path style="fill:#FFFFFF;" d="M462.125,49.752L462.125,49.752c-3.14-3.14-8.231-3.14-11.371,0l-1.79,1.79l-1.79-1.79
					c-3.14-3.14-8.231-3.14-11.371,0l0,0c-3.14,3.14-3.14,8.231,0,11.371l1.79,1.79l0,0l9.944,9.944
					c0.789,0.788,2.067,0.788,2.855,0l9.943-9.944l0,0l1.79-1.79C465.265,57.983,465.265,52.892,462.125,49.752z"/>
			</g>
			<g>
				<path style="fill:#ABABEF;" d="M376.86,63.09c-0.818-0.441-1.714-0.402-2.436-0.024c-0.782,0.41-1.673,0.56-2.513,0.287
					l-4.142-1.346c0.352-1.3,0.557-2.661,0.557-4.073c0-1.412-0.205-2.773-0.557-4.073l4.017-1.305
					c0.898-0.292,1.851-0.139,2.698,0.278c0.578,0.285,1.262,0.354,1.925,0.139c1.51-0.491,2.262-2.238,1.473-3.709
					c-0.495-0.923-1.558-1.466-2.596-1.326c-0.921,0.124-1.623,0.682-1.984,1.412c-0.391,0.791-1.025,1.437-1.864,1.71l-4.141,1.346
					c-0.992-2.605-2.652-4.877-4.785-6.596l2.479-3.412c0.555-0.764,1.415-1.201,2.346-1.361c0.635-0.11,1.229-0.455,1.639-1.019
					c0.934-1.285,0.514-3.14-0.988-3.866c-0.943-0.456-2.122-0.27-2.88,0.453c-0.672,0.641-0.913,1.506-0.775,2.309
					c0.149,0.87,0.016,1.765-0.503,2.479l-2.556,3.518c-2.247-1.473-4.899-2.367-7.752-2.506v-4.23c0-0.944,0.439-1.803,1.098-2.48
					c0.449-0.462,0.727-1.091,0.727-1.788c0-1.588-1.43-2.843-3.072-2.547c-1.031,0.186-1.875,1.029-2.064,2.059
					c-0.167,0.914,0.147,1.755,0.73,2.324c0.632,0.617,1.05,1.419,1.05,2.302v4.361c-2.853,0.139-5.505,1.034-7.752,2.506
					l-2.479-3.412c-0.555-0.764-0.704-1.717-0.57-2.652c0.092-0.638-0.053-1.31-0.463-1.874c-0.934-1.285-2.827-1.46-3.982-0.255
					c-0.725,0.756-0.913,1.935-0.459,2.879c0.402,0.838,1.15,1.333,1.956,1.451c0.874,0.128,1.683,0.53,2.202,1.245l2.556,3.518
					c-2.134,1.719-3.794,3.991-4.785,6.596l-4.017-1.305c-0.898-0.292-1.579-0.975-2.02-1.81c-0.301-0.57-0.813-1.028-1.476-1.244
					c-1.51-0.491-3.145,0.481-3.371,2.135c-0.142,1.037,0.399,2.102,1.321,2.599c0.818,0.441,1.714,0.403,2.436,0.024
					c0.782-0.41,1.673-0.56,2.513-0.287l4.142,1.346c-0.352,1.301-0.557,2.662-0.557,4.073c0,1.412,0.205,2.773,0.557,4.073
					l-4.017,1.305c-0.898,0.292-1.851,0.14-2.698-0.278c-0.578-0.285-1.262-0.354-1.925-0.139c-1.51,0.491-2.262,2.238-1.473,3.709
					c0.495,0.923,1.558,1.465,2.596,1.326c0.921-0.124,1.623-0.682,1.984-1.412c0.391-0.792,1.025-1.437,1.864-1.71l4.141-1.346
					c0.992,2.605,2.651,4.877,4.785,6.596l-2.479,3.412c-0.555,0.764-1.415,1.201-2.346,1.361c-0.635,0.11-1.229,0.455-1.639,1.019
					c-0.934,1.285-0.514,3.14,0.988,3.866c0.943,0.456,2.122,0.27,2.88-0.453c0.673-0.641,0.913-1.506,0.775-2.309
					c-0.149-0.87-0.016-1.765,0.503-2.479l2.556-3.518c2.247,1.473,4.899,2.367,7.752,2.506v4.23c0,0.945-0.439,1.803-1.098,2.48
					c-0.449,0.462-0.727,1.091-0.727,1.788c0,1.588,1.43,2.843,3.072,2.547c1.031-0.186,1.875-1.029,2.064-2.059
					c0.167-0.914-0.147-1.754-0.73-2.324c-0.632-0.617-1.05-1.418-1.05-2.301v-4.361c2.853-0.139,5.505-1.034,7.752-2.506
					l2.479,3.412c0.555,0.764,0.704,1.717,0.57,2.652c-0.092,0.638,0.053,1.31,0.463,1.874c0.934,1.285,2.827,1.459,3.982,0.255
					c0.725-0.756,0.913-1.935,0.459-2.879c-0.402-0.838-1.15-1.333-1.956-1.451c-0.874-0.128-1.683-0.531-2.202-1.245l-2.556-3.518
					c2.134-1.719,3.794-3.991,4.785-6.596l4.017,1.305c0.898,0.292,1.579,0.975,2.02,1.81c0.301,0.571,0.813,1.029,1.476,1.244
					c1.51,0.491,3.145-0.481,3.371-2.134C378.322,64.651,377.781,63.587,376.86,63.09z"/>
				
					<ellipse transform="matrix(0.1606 -0.987 0.987 0.1606 238.9251 396.8075)" style="fill:#BEBEF4;" cx="352.755" cy="57.934" rx="8.061" ry="8.061"/>
			</g>
			<g>
				<path style="fill:#ABABEF;" d="M635.125,258.204c-0.643-0.347-1.348-0.316-1.916-0.019c-0.615,0.323-1.316,0.441-1.977,0.226
					l-3.258-1.059c0.277-1.023,0.438-2.093,0.438-3.204c0-1.11-0.161-2.181-0.438-3.204l3.16-1.027
					c0.706-0.229,1.456-0.11,2.122,0.218c0.455,0.224,0.993,0.278,1.514,0.109c1.188-0.386,1.779-1.76,1.158-2.917
					c-0.389-0.726-1.225-1.153-2.042-1.043c-0.724,0.097-1.277,0.536-1.561,1.111c-0.308,0.622-0.806,1.13-1.466,1.345l-3.257,1.058
					c-0.78-2.049-2.085-3.836-3.763-5.188l1.95-2.683c0.437-0.601,1.113-0.944,1.845-1.071c0.5-0.086,0.967-0.358,1.289-0.802
					c0.734-1.011,0.404-2.47-0.777-3.041c-0.742-0.358-1.669-0.212-2.265,0.356c-0.529,0.505-0.718,1.184-0.61,1.816
					c0.117,0.685,0.012,1.388-0.396,1.95l-2.01,2.767c-1.768-1.158-3.853-1.862-6.097-1.971v-3.327c0-0.743,0.345-1.418,0.863-1.951
					c0.354-0.364,0.572-0.858,0.572-1.407c0-1.249-1.124-2.236-2.416-2.003c-0.811,0.146-1.475,0.809-1.623,1.619
					c-0.131,0.719,0.116,1.38,0.574,1.827c0.497,0.485,0.826,1.116,0.826,1.81v3.43c-2.244,0.109-4.329,0.813-6.097,1.971
					l-1.95-2.683c-0.437-0.601-0.554-1.35-0.448-2.085c0.072-0.502-0.042-1.03-0.364-1.474c-0.734-1.011-2.224-1.148-3.132-0.2
					c-0.57,0.595-0.718,1.522-0.361,2.264c0.316,0.659,0.905,1.049,1.539,1.141c0.687,0.1,1.324,0.417,1.732,0.979l2.01,2.767
					c-1.678,1.352-2.984,3.139-3.763,5.188l-3.159-1.026c-0.706-0.23-1.242-0.767-1.589-1.424c-0.236-0.449-0.639-0.809-1.161-0.978
					c-1.188-0.386-2.474,0.378-2.651,1.679c-0.112,0.816,0.314,1.653,1.039,2.044c0.643,0.347,1.348,0.316,1.915,0.019
					c0.615-0.323,1.316-0.44,1.977-0.226l3.258,1.058c-0.277,1.023-0.438,2.093-0.438,3.204c0,1.111,0.161,2.181,0.438,3.204
					l-3.16,1.027c-0.706,0.229-1.456,0.11-2.122-0.218c-0.455-0.224-0.993-0.279-1.514-0.109c-1.188,0.386-1.779,1.76-1.158,2.917
					c0.389,0.726,1.225,1.153,2.042,1.043c0.724-0.097,1.277-0.536,1.561-1.111c0.308-0.623,0.806-1.13,1.466-1.345l3.257-1.058
					c0.78,2.049,2.085,3.836,3.763,5.188l-1.95,2.683c-0.437,0.601-1.113,0.944-1.845,1.071c-0.5,0.086-0.967,0.358-1.289,0.802
					c-0.734,1.011-0.404,2.469,0.777,3.041c0.742,0.358,1.669,0.212,2.265-0.356c0.529-0.504,0.718-1.184,0.61-1.816
					c-0.117-0.685-0.012-1.388,0.396-1.95l2.01-2.767c1.768,1.158,3.853,1.862,6.097,1.971v3.327c0,0.743-0.345,1.418-0.863,1.951
					c-0.354,0.363-0.572,0.858-0.572,1.406c0,1.249,1.124,2.236,2.416,2.003c0.811-0.146,1.475-0.809,1.623-1.619
					c0.131-0.719-0.115-1.38-0.574-1.828c-0.497-0.485-0.826-1.115-0.826-1.81v-3.43c2.244-0.109,4.329-0.813,6.097-1.971
					l1.95,2.683c0.437,0.601,0.554,1.35,0.448,2.086c-0.072,0.502,0.042,1.03,0.364,1.474c0.734,1.011,2.224,1.148,3.132,0.2
					c0.57-0.595,0.718-1.522,0.361-2.264c-0.316-0.659-0.904-1.048-1.539-1.141c-0.687-0.1-1.324-0.417-1.732-0.979l-2.01-2.767
					c1.678-1.352,2.984-3.139,3.763-5.188l3.159,1.027c0.706,0.229,1.242,0.767,1.588,1.424c0.237,0.449,0.639,0.809,1.161,0.978
					c1.188,0.386,2.474-0.378,2.651-1.679C636.275,259.432,635.85,258.596,635.125,258.204z"/>
				<path style="fill:#BEBEF4;" d="M622.506,254.149c0,3.502-2.838,6.34-6.34,6.34c-3.501,0-6.34-2.838-6.34-6.34
					c0-3.501,2.838-6.34,6.34-6.34C619.668,247.81,622.506,250.648,622.506,254.149z"/>
			</g>
			<g>
				<path style="fill:#ABABEF;" d="M163.929,247.975c-0.956-0.516-2.005-0.471-2.849-0.028c-0.915,0.48-1.957,0.655-2.939,0.336
					l-4.844-1.574c0.412-1.521,0.651-3.113,0.651-4.764c0-1.651-0.239-3.243-0.651-4.764l4.699-1.527
					c1.051-0.341,2.164-0.163,3.156,0.325c0.677,0.333,1.476,0.414,2.252,0.162c1.767-0.574,2.645-2.618,1.722-4.338
					c-0.579-1.079-1.822-1.714-3.036-1.551c-1.077,0.145-1.899,0.798-2.321,1.652c-0.458,0.926-1.198,1.68-2.181,1.999l-4.844,1.574
					c-1.16-3.047-3.101-5.704-5.597-7.715l2.899-3.99c0.649-0.894,1.655-1.404,2.744-1.592c0.743-0.128,1.438-0.532,1.917-1.192
					c1.092-1.503,0.602-3.672-1.156-4.522c-1.103-0.533-2.482-0.316-3.368,0.53c-0.786,0.75-1.067,1.761-0.907,2.701
					c0.174,1.018,0.018,2.064-0.589,2.899l-2.989,4.114c-2.629-1.722-5.73-2.768-9.067-2.931v-4.947
					c0-1.105,0.514-2.109,1.284-2.901c0.526-0.541,0.85-1.276,0.85-2.092c0-1.857-1.672-3.325-3.593-2.979
					c-1.205,0.217-2.193,1.203-2.413,2.408c-0.195,1.069,0.172,2.052,0.854,2.718c0.739,0.722,1.228,1.659,1.228,2.692v5.1
					c-3.337,0.163-6.438,1.209-9.067,2.931l-2.899-3.99c-0.649-0.894-0.824-2.008-0.666-3.101c0.108-0.747-0.062-1.532-0.542-2.192
					c-1.092-1.503-3.307-1.707-4.657-0.298c-0.848,0.884-1.067,2.263-0.537,3.367c0.47,0.98,1.345,1.559,2.288,1.697
					c1.022,0.149,1.968,0.62,2.576,1.456l2.989,4.114c-2.496,2.01-4.437,4.668-5.597,7.715l-4.698-1.526
					c-1.051-0.341-1.847-1.14-2.362-2.118c-0.352-0.667-0.951-1.203-1.727-1.455c-1.767-0.574-3.678,0.563-3.943,2.497
					c-0.166,1.213,0.467,2.458,1.545,3.04c0.956,0.516,2.005,0.471,2.849,0.028c0.914-0.48,1.957-0.655,2.939-0.336l4.844,1.574
					c-0.412,1.521-0.651,3.113-0.651,4.764c0,1.651,0.239,3.243,0.651,4.764l-4.699,1.527c-1.05,0.341-2.164,0.163-3.156-0.324
					c-0.677-0.333-1.476-0.414-2.252-0.162c-1.767,0.574-2.645,2.617-1.722,4.337c0.579,1.079,1.822,1.714,3.036,1.551
					c1.077-0.145,1.899-0.798,2.321-1.652c0.458-0.926,1.198-1.68,2.181-1.999l4.843-1.574c1.16,3.047,3.101,5.704,5.597,7.715
					l-2.899,3.99c-0.649,0.894-1.655,1.404-2.744,1.592c-0.743,0.128-1.438,0.533-1.917,1.192c-1.092,1.503-0.602,3.672,1.156,4.521
					c1.103,0.533,2.482,0.316,3.368-0.53c0.786-0.75,1.067-1.761,0.907-2.7c-0.174-1.018-0.018-2.064,0.589-2.899l2.989-4.115
					c2.629,1.722,5.73,2.769,9.067,2.931v4.947c0,1.105-0.514,2.109-1.284,2.901c-0.526,0.541-0.85,1.276-0.85,2.091
					c0,1.858,1.672,3.325,3.593,2.979c1.205-0.217,2.193-1.203,2.414-2.408c0.195-1.069-0.172-2.052-0.854-2.718
					c-0.739-0.721-1.228-1.659-1.228-2.692v-5.1c3.337-0.163,6.438-1.209,9.067-2.931l2.899,3.99
					c0.649,0.894,0.824,2.008,0.666,3.101c-0.108,0.746,0.062,1.532,0.542,2.192c1.092,1.503,3.307,1.707,4.657,0.298
					c0.848-0.884,1.067-2.263,0.537-3.367c-0.47-0.98-1.345-1.559-2.288-1.697c-1.022-0.149-1.969-0.62-2.576-1.456l-2.989-4.114
					c2.495-2.01,4.437-4.668,5.597-7.715l4.698,1.526c1.051,0.341,1.847,1.14,2.362,2.117c0.352,0.667,0.951,1.203,1.726,1.455
					c1.767,0.574,3.679-0.563,3.943-2.497C165.639,249.801,165.007,248.557,163.929,247.975z"/>
				
					<ellipse transform="matrix(0.2271 -0.9739 0.9739 0.2271 -130.7163 319.1781)" style="fill:#BEBEF4;" cx="135.736" cy="241.945" rx="9.428" ry="9.428"/>
			</g>
			<g>
				<path style="fill:#725FC4;" d="M601.862,209.759H486.724l-13.772,11.922V185.56c0-13.365,10.834-24.199,24.199-24.199h104.711
					c13.365,0,24.199,10.834,24.199,24.199l0,0C626.06,198.925,615.226,209.759,601.862,209.759z"/>
				<rect x="483.897" y="176.423" style="fill:none;" width="133.07" height="22.502"/>
				
					<text transform="matrix(1 0 0 1 523.6224 194.7877)" style="fill:#FFFFFF; font-family:'Mohave-MediumItalic'; font-size:25.8659px;">INFO </text>
			</g>
			<path style="fill:#725FC4;" d="M192.199,373.414c-0.111-3.809-3.288-6.806-7.097-6.696c-1.645,0.048-3.138,0.67-4.295,1.666
				l-28.275-15.246c0.045-0.354,0.072-0.713,0.061-1.081s-0.058-0.725-0.124-1.076l27.34-16.863c1.214,0.928,2.74,1.462,4.386,1.414
				c3.809-0.111,6.806-3.288,6.696-7.097c-0.111-3.809-3.288-6.806-7.097-6.696c-3.809,0.111-6.807,3.288-6.696,7.097
				c0.011,0.368,0.058,0.725,0.124,1.076l-27.341,16.862c-1.214-0.927-2.74-1.462-4.385-1.414c-3.809,0.111-6.806,3.288-6.696,7.097
				c0.111,3.809,3.288,6.807,7.097,6.696c1.646-0.048,3.138-0.67,4.296-1.667l28.274,15.246c-0.045,0.354-0.072,0.713-0.061,1.081
				c0.111,3.809,3.288,6.806,7.097,6.696C189.312,380.4,192.309,377.223,192.199,373.414z"/>
			<g>
				<g>
					<g>
						<path style="fill:#ABABEF;" d="M256.228,296.135h-61.091c-1.359,0-2.461-1.102-2.461-2.461v-7.133
							c0-1.359,1.102-2.461,2.461-2.461h61.091c1.359,0,2.461,1.102,2.461,2.461v7.133
							C258.689,295.033,257.587,296.135,256.228,296.135z"/>
						<path style="fill:#F98732;" d="M239.823,249.768h-28.282c-1.474,0-2.777,0.955-3.221,2.36l-10.096,31.952h54.915
							l-10.096-31.952C242.6,250.723,241.297,249.768,239.823,249.768z"/>
					</g>
					<path style="fill:#FFA05F;" d="M226.797,266.924h-2.23c-2.92,0-5.287,2.367-5.287,5.287v11.869h12.805v-11.869
						C232.084,269.292,229.717,266.924,226.797,266.924z"/>
				</g>
				<g>
					<g>
						<path style="fill:#F98732;" d="M225.339,243.446c-0.828,0-1.5-0.672-1.5-1.5v-6.695c0-0.828,0.672-1.5,1.5-1.5
							c0.828,0,1.5,0.672,1.5,1.5v6.695C226.839,242.774,226.167,243.446,225.339,243.446z"/>
					</g>
					<g>
						<path style="fill:#F98732;" d="M244.912,246.984c-0.384,0-0.768-0.146-1.061-0.439c-0.586-0.586-0.586-1.535,0-2.121
							l4.733-4.734c0.586-0.586,1.535-0.586,2.121,0c0.586,0.586,0.586,1.535,0,2.121l-4.733,4.734
							C245.68,246.837,245.296,246.984,244.912,246.984z"/>
					</g>
					<g>
						<path style="fill:#F98732;" d="M258.51,259.771h-6.694c-0.828,0-1.5-0.672-1.5-1.5s0.672-1.5,1.5-1.5h6.694
							c0.828,0,1.5,0.672,1.5,1.5S259.338,259.771,258.51,259.771z"/>
					</g>
					<g>
						<path style="fill:#F98732;" d="M199.549,259.771h-6.694c-0.828,0-1.5-0.672-1.5-1.5s0.672-1.5,1.5-1.5h6.694
							c0.828,0,1.5,0.672,1.5,1.5S200.377,259.771,199.549,259.771z"/>
					</g>
					<g>
						<path style="fill:#F98732;" d="M203.846,246.94c-0.375,0-0.75-0.14-1.041-0.42l-4.819-4.647
							c-0.597-0.575-0.614-1.525-0.039-2.121c0.577-0.598,1.526-0.612,2.121-0.039l4.819,4.648c0.597,0.575,0.614,1.525,0.039,2.121
							C204.631,246.786,204.238,246.94,203.846,246.94z"/>
					</g>
				</g>
			</g>
			<path style="fill:#F98732;" d="M398.564,411.241h-66.436v-0.213c0-3.395,2.753-6.148,6.148-6.148h54.14
				c3.395,0,6.148,2.753,6.148,6.148V411.241z"/>
			<g>
				<path style="fill:#ABABEF;" d="M244.545,407.126c-11.437-11.437-29.98-11.437-41.418,0c-9.769,9.769-11.186,24.719-4.267,36
					l-3.545,13.229l13.229-3.545c11.281,6.919,26.231,5.502,36-4.267C255.982,437.106,255.982,418.563,244.545,407.126z"/>
				<g>
					<circle style="fill:#BEBEF4;" cx="223.836" cy="427.835" r="4.594"/>
					<circle style="fill:#BEBEF4;" cx="239.287" cy="427.835" r="4.594"/>
					<path style="fill:#BEBEF4;" d="M212.98,427.835c0,2.537-2.057,4.594-4.594,4.594s-4.594-2.057-4.594-4.594
						s2.057-4.594,4.594-4.594S212.98,425.297,212.98,427.835z"/>
				</g>
			</g>
		</g>
		<g>
			<path style="fill:#FC9797;" d="M600.918,339.152c0,0-2.522-45.458-40.552-94.255c0,0-19.364-22.928-33.241-15.231
				c-6.182,3.429-9.12,10.149-9.12,10.149s-12.17-8.412-21.781-0.907c-4.135,3.229-4.733,12.678-4.733,12.678
				s-9.61-6.457-17.411-1.502c-5.771,3.665-7.781,13.783-7.781,13.783s-25.754-43.428-35.543-51.808
				c-13.185-11.287-25.963,1.688-21.095,17.031c4.024,12.681,17.534,44.949,37.737,84.54c-3.387,8.482-7.695,31.139-4.1,41.059
				c5.714,15.767,52.751,42.559,52.751,42.559L554.089,500h154.095L600.918,339.152z"/>
		</g>
	</g>
</g>
</svg>
